<mxfile host="app.diagrams.net" modified="2023-11-29T08:36:00.226Z" agent="Mozilla/5.0 (Windows NT 10.0; Win64; x64) AppleWebKit/537.36 (KHTML, like Gecko) Chrome/119.0.0.0 Safari/537.36" version="22.1.4" etag="Rt2alo7RV_hhqdXgAp1H" type="device">
  <diagram id="mrnl5sS8RKW5XvcOha4p" name="Trang-1">
    <mxGraphModel dx="3109" dy="1444" grid="1" gridSize="10" guides="1" tooltips="1" connect="1" arrows="1" fold="1" page="0" pageScale="1" pageWidth="827" pageHeight="1169" background="none" math="0" shadow="0">
      <root>
        <mxCell id="0" />
        <mxCell id="1" parent="0" />
        <mxCell id="node1" value="&lt;p style=&quot;margin:0px;margin-top:4px;text-align:center;&quot;&gt;&lt;b&gt;Order&lt;/b&gt;&lt;/p&gt;&lt;hr size=&quot;1&quot;/&gt;&lt;p style=&quot;margin:0 0 0 4px;line-height:1.6;&quot;&gt; ward: String&lt;br/&gt; shipFee: int&lt;br/&gt; note: String&lt;br/&gt; nameUser: String&lt;br/&gt; payment: int&lt;br/&gt; wardCode: String&lt;br/&gt; orderDate: Date&lt;br/&gt; weight: int&lt;br/&gt; district: String&lt;br/&gt; phone: String&lt;br/&gt; statusPayment: int&lt;br/&gt; detailAddress: String&lt;br/&gt; voucher: Voucher&lt;br/&gt; shipCode: String&lt;br/&gt; expectedDeliveryTime: Date&lt;br/&gt; status: int&lt;br/&gt; orderDetails: List&amp;lt;OrderDetail&amp;gt;&lt;br/&gt; email: String&lt;br/&gt; total: int&lt;br/&gt; districtId: int&lt;br/&gt; user: Users&lt;br/&gt; province: String&lt;br/&gt; totalDiscount: int&lt;br/&gt; id: int&lt;/p&gt;" style="verticalAlign=top;align=left;overflow=fill;fontSize=14;fontFamily=Helvetica;html=1;rounded=0;shadow=0;comic=0;labelBackgroundColor=none;strokeWidth=1;" parent="1" vertex="1">
          <mxGeometry x="-163" y="-210" width="240" height="615" as="geometry" />
        </mxCell>
        <mxCell id="node0" value="&lt;p style=&quot;margin:0px;margin-top:4px;text-align:center;&quot;&gt;&lt;i&gt;&amp;lt;&amp;lt;interface&amp;gt;&amp;gt;&lt;/i&gt;&lt;br&gt;&lt;b&gt;OrderRepository&lt;/b&gt;&lt;/p&gt;&lt;hr size=&quot;1&quot;&gt;&lt;p style=&quot;margin:0 0 0 4px;line-height:1.6;&quot;&gt;+ findTop10PhoneTotalsForToday(): List&amp;lt;PhoneTotalDTO&amp;gt;&lt;br&gt;+ findTotalByPhoneAndDateRange(): List&amp;lt;TotalWithUserOrderDTO&amp;gt;&lt;br&gt;+ findTop10PhoneTotalsByDateRange(Date&amp;nbsp;startDate, Date&amp;nbsp;endDate)&lt;span style=&quot;background-color: initial;&quot;&gt;: List&amp;lt;PhoneTotalDTO&amp;gt;&lt;/span&gt;&lt;/p&gt;&lt;p style=&quot;margin:0 0 0 4px;line-height:1.6;&quot;&gt;+ findAllTotal(): List&amp;lt;OrderDTO&amp;gt;&lt;br&gt;+ findTop10ByPhonePriceWithDate(): List&amp;lt;PhoneTotalDTO&amp;gt;&lt;br&gt;+ findOrderByIdUser(int&amp;nbsp;userId&lt;span style=&quot;background-color: initial;&quot;&gt;): List&amp;lt;Order&amp;gt;&lt;/span&gt;&lt;/p&gt;" style="verticalAlign=top;align=left;overflow=fill;fontSize=14;fontFamily=Helvetica;html=1;rounded=0;shadow=0;comic=0;labelBackgroundColor=none;strokeWidth=1;" parent="1" vertex="1">
          <mxGeometry x="-907" y="394" width="607" height="183" as="geometry" />
        </mxCell>
        <mxCell id="node3" value="&lt;p style=&quot;margin:0px;margin-top:4px;text-align:center;&quot;&gt;&lt;i&gt;&amp;lt;&amp;lt;interface&amp;gt;&amp;gt;&lt;/i&gt;&lt;br&gt;&lt;b&gt;OrderService&lt;/b&gt;&lt;/p&gt;&lt;hr size=&quot;1&quot;&gt;&lt;p style=&quot;margin:0 0 0 4px;line-height:1.6;&quot;&gt;+ fillOrderById(int&amp;nbsp;id&lt;span style=&quot;background-color: initial;&quot;&gt;): Order&lt;/span&gt;&lt;/p&gt;&lt;p style=&quot;margin:0 0 0 4px;line-height:1.6;&quot;&gt;+ findOrderByIdUser(String): List&amp;lt;Order&amp;gt;&lt;br&gt;+ cancelOrder(int&amp;nbsp;orderId&lt;span style=&quot;background-color: initial;&quot;&gt;): Order&lt;/span&gt;&lt;/p&gt;&lt;p style=&quot;margin:0 0 0 4px;line-height:1.6;&quot;&gt;+ updatePayment(int idOrder, int&amp;nbsp;statusPayment&lt;span style=&quot;background-color: initial;&quot;&gt;): Order&lt;/span&gt;&lt;/p&gt;&lt;p style=&quot;margin:0 0 0 4px;line-height:1.6;&quot;&gt;+ findTotalByPhoneAndDateRange(): List&amp;lt;TotalWithUserOrderDTO&amp;gt;&lt;br&gt;+ saveOrder(JsonNode&amp;nbsp;orderData&lt;span style=&quot;background-color: initial;&quot;&gt;): Order&lt;/span&gt;&lt;/p&gt;&lt;p style=&quot;margin:0 0 0 4px;line-height:1.6;&quot;&gt;+ updateStatusOrder(int&amp;nbsp;idOrder, int&amp;nbsp;statusPayment&lt;span style=&quot;background-color: initial;&quot;&gt;): Order&lt;/span&gt;&lt;/p&gt;&lt;p style=&quot;margin:0 0 0 4px;line-height:1.6;&quot;&gt;+ orderGhn(int&amp;nbsp;orderId&lt;span style=&quot;background-color: initial;&quot;&gt;): Order&lt;/span&gt;&lt;/p&gt;&lt;p style=&quot;margin:0 0 0 4px;line-height:1.6;&quot;&gt;+ fillAllOrder(): List&amp;lt;Order&amp;gt;&lt;br&gt;+ updateStatusPayment(int&amp;nbsp;idOrder, int&amp;nbsp;idOrder&lt;span style=&quot;background-color: initial;&quot;&gt;): Order&lt;/span&gt;&lt;/p&gt;&lt;p style=&quot;margin:0 0 0 4px;line-height:1.6;&quot;&gt;+ findAllTotal(): List&amp;lt;OrderDTO&amp;gt;&lt;br&gt;+ updatePaymentAndStatusPayment(int&amp;nbsp;idOrder, int statusPayment, int&amp;nbsp;payment&lt;span style=&quot;background-color: initial;&quot;&gt;): Order&lt;/span&gt;&lt;/p&gt;&lt;p style=&quot;margin:0 0 0 4px;line-height:1.6;&quot;&gt;+ findTop10ByPhonePriceWithDate(): List&amp;lt;PhoneTotalDTO&amp;gt;&lt;br&gt;+ findPhoneTotalsForToday(): List&amp;lt;PhoneTotalDTO&amp;gt;&lt;br&gt;+ findTop10PhoneTotalsByDateRange(String&amp;nbsp;startDate, String&amp;nbsp;endDate&lt;span style=&quot;background-color: initial;&quot;&gt;): List&amp;lt;PhoneTotalDTO&amp;gt;&lt;/span&gt;&lt;/p&gt;&lt;p style=&quot;margin:0 0 0 4px;line-height:1.6;&quot;&gt;+ subTotalOrder(int&amp;nbsp;idOrder&lt;span style=&quot;background-color: initial;&quot;&gt;): double&lt;/span&gt;&lt;/p&gt;" style="verticalAlign=top;align=left;overflow=fill;fontSize=14;fontFamily=Helvetica;html=1;rounded=0;shadow=0;comic=0;labelBackgroundColor=none;strokeWidth=1;" parent="1" vertex="1">
          <mxGeometry x="228" y="318" width="572" height="423" as="geometry" />
        </mxCell>
        <mxCell id="node2" value="&lt;p style=&quot;margin:0px;margin-top:4px;text-align:center;&quot;&gt;&lt;b&gt;OrderServiceImpl&lt;/b&gt;&lt;/p&gt;&lt;hr size=&quot;1&quot;&gt;&lt;p style=&quot;border-color: var(--border-color); margin: 0px 0px 0px 4px; line-height: 1.6;&quot;&gt;+ fillOrderById(int&amp;nbsp;id): Order&lt;/p&gt;&lt;p style=&quot;border-color: var(--border-color); margin: 0px 0px 0px 4px; line-height: 1.6;&quot;&gt;+ findOrderByIdUser(String): List&amp;lt;Order&amp;gt;&lt;br style=&quot;border-color: var(--border-color);&quot;&gt;+ cancelOrder(int&amp;nbsp;orderId&lt;span style=&quot;border-color: var(--border-color); background-color: initial;&quot;&gt;): Order&lt;/span&gt;&lt;/p&gt;&lt;p style=&quot;border-color: var(--border-color); margin: 0px 0px 0px 4px; line-height: 1.6;&quot;&gt;+ updatePayment(int idOrder, int&amp;nbsp;statusPayment&lt;span style=&quot;border-color: var(--border-color); background-color: initial;&quot;&gt;): Order&lt;/span&gt;&lt;/p&gt;&lt;p style=&quot;border-color: var(--border-color); margin: 0px 0px 0px 4px; line-height: 1.6;&quot;&gt;+ findTotalByPhoneAndDateRange(): List&amp;lt;TotalWithUserOrderDTO&amp;gt;&lt;br style=&quot;border-color: var(--border-color);&quot;&gt;+ saveOrder(JsonNode&amp;nbsp;orderData&lt;span style=&quot;border-color: var(--border-color); background-color: initial;&quot;&gt;): Order&lt;/span&gt;&lt;/p&gt;&lt;p style=&quot;border-color: var(--border-color); margin: 0px 0px 0px 4px; line-height: 1.6;&quot;&gt;+ updateStatusOrder(int&amp;nbsp;idOrder, int&amp;nbsp;statusPayment&lt;span style=&quot;border-color: var(--border-color); background-color: initial;&quot;&gt;): Order&lt;/span&gt;&lt;/p&gt;&lt;p style=&quot;border-color: var(--border-color); margin: 0px 0px 0px 4px; line-height: 1.6;&quot;&gt;+ orderGhn(int&amp;nbsp;orderId&lt;span style=&quot;border-color: var(--border-color); background-color: initial;&quot;&gt;): Order&lt;/span&gt;&lt;/p&gt;&lt;p style=&quot;border-color: var(--border-color); margin: 0px 0px 0px 4px; line-height: 1.6;&quot;&gt;+ fillAllOrder(): List&amp;lt;Order&amp;gt;&lt;br style=&quot;border-color: var(--border-color);&quot;&gt;+ updateStatusPayment(int&amp;nbsp;idOrder, int&amp;nbsp;idOrder&lt;span style=&quot;border-color: var(--border-color); background-color: initial;&quot;&gt;): Order&lt;/span&gt;&lt;/p&gt;&lt;p style=&quot;border-color: var(--border-color); margin: 0px 0px 0px 4px; line-height: 1.6;&quot;&gt;+ findAllTotal(): List&amp;lt;OrderDTO&amp;gt;&lt;br style=&quot;border-color: var(--border-color);&quot;&gt;+ updatePaymentAndStatusPayment(int&amp;nbsp;idOrder, int statusPayment, int&amp;nbsp;payment&lt;span style=&quot;border-color: var(--border-color); background-color: initial;&quot;&gt;): Order&lt;/span&gt;&lt;/p&gt;&lt;p style=&quot;border-color: var(--border-color); margin: 0px 0px 0px 4px; line-height: 1.6;&quot;&gt;+ findTop10ByPhonePriceWithDate(): List&amp;lt;PhoneTotalDTO&amp;gt;&lt;br style=&quot;border-color: var(--border-color);&quot;&gt;+ findPhoneTotalsForToday(): List&amp;lt;PhoneTotalDTO&amp;gt;&lt;br style=&quot;border-color: var(--border-color);&quot;&gt;+ findTop10PhoneTotalsByDateRange(String&amp;nbsp;startDate, String&amp;nbsp;endDate&lt;span style=&quot;border-color: var(--border-color); background-color: initial;&quot;&gt;): List&amp;lt;PhoneTotalDTO&amp;gt;&lt;/span&gt;&lt;/p&gt;&lt;p style=&quot;border-color: var(--border-color); margin: 0px 0px 0px 4px; line-height: 1.6;&quot;&gt;+ subTotalOrder(int&amp;nbsp;idOrder&lt;span style=&quot;border-color: var(--border-color); background-color: initial;&quot;&gt;): double&lt;/span&gt;&lt;/p&gt;" style="verticalAlign=top;align=left;overflow=fill;fontSize=14;fontFamily=Helvetica;html=1;rounded=0;shadow=0;comic=0;labelBackgroundColor=none;strokeWidth=1;" parent="1" vertex="1">
          <mxGeometry x="-380" y="790" width="597" height="423" as="geometry" />
        </mxCell>
        <mxCell id="edge2" value="" style="html=1;rounded=0;edgeStyle=orthogonalEdgeStyle;dashed=1;startArrow=none;endArrow=openThin;endSize=12;exitX=1.000;exitY=0.023;exitDx=0;exitDy=0;entryX=0.000;entryY=0.988;entryDx=0;entryDy=0;labelBackgroundColor=none;fontColor=default;" parent="1" source="node0" target="node1" edge="1">
          <mxGeometry width="50" height="50" relative="1" as="geometry">
            <Array as="points" />
          </mxGeometry>
        </mxCell>
        <mxCell id="edge1" value="" style="html=1;rounded=0;edgeStyle=orthogonalEdgeStyle;dashed=1;startArrow=none;endArrow=openThin;endSize=12;exitX=0.500;exitY=0.000;exitDx=0;exitDy=0;entryX=1.000;entryY=0.500;entryDx=0;entryDy=0;labelBackgroundColor=none;fontColor=default;" parent="1" source="node3" target="node1" edge="1">
          <mxGeometry width="50" height="50" relative="1" as="geometry">
            <Array as="points">
              <mxPoint x="483" y="98" />
            </Array>
          </mxGeometry>
        </mxCell>
        <mxCell id="edge3" value="" style="html=1;rounded=0;edgeStyle=orthogonalEdgeStyle;dashed=1;startArrow=none;endArrow=openThin;endSize=12;exitX=0.471;exitY=0.000;exitDx=0;exitDy=0;entryX=0.438;entryY=1.000;entryDx=0;entryDy=0;labelBackgroundColor=none;fontColor=default;" parent="1" source="node2" target="node1" edge="1">
          <mxGeometry width="50" height="50" relative="1" as="geometry">
            <Array as="points" />
          </mxGeometry>
        </mxCell>
        <mxCell id="edge4" value="" style="html=1;rounded=0;edgeStyle=orthogonalEdgeStyle;dashed=0;startArrow=diamondThinstartSize=12;endArrow=openThin;endSize=12;exitX=0.000;exitY=0.500;exitDx=0;exitDy=0;entryX=0.500;entryY=1.000;entryDx=0;entryDy=0;labelBackgroundColor=none;fontColor=default;" parent="1" source="node2" target="node0" edge="1">
          <mxGeometry width="50" height="50" relative="1" as="geometry">
            <Array as="points">
              <mxPoint x="-661" y="991" />
            </Array>
          </mxGeometry>
        </mxCell>
        <mxCell id="label24" value="1" style="edgeLabel;resizable=0;html=1;align=left;verticalAlign=top;labelBackgroundColor=none;rounded=0;" parent="edge4" vertex="1" connectable="0">
          <mxGeometry x="-367" y="991" as="geometry" />
        </mxCell>
        <mxCell id="label28" value="1" style="edgeLabel;resizable=0;html=1;align=left;verticalAlign=top;labelBackgroundColor=none;rounded=0;" parent="edge4" vertex="1" connectable="0">
          <mxGeometry x="-672" y="610" as="geometry" />
        </mxCell>
        <mxCell id="label29" value="orderRepository" style="edgeLabel;resizable=0;html=1;align=left;verticalAlign=top;labelBackgroundColor=none;rounded=0;" parent="edge4" vertex="1" connectable="0">
          <mxGeometry x="-661" y="610" as="geometry" />
        </mxCell>
        <mxCell id="edge0" value="" style="html=1;rounded=0;edgeStyle=orthogonalEdgeStyle;dashed=1;startArrow=none;endArrow=block;endSize=12;exitX=1.000;exitY=0.500;exitDx=0;exitDy=0;entryX=0.167;entryY=1.000;entryDx=0;entryDy=0;labelBackgroundColor=none;fontColor=default;" parent="1" source="node2" target="node3" edge="1">
          <mxGeometry width="50" height="50" relative="1" as="geometry">
            <Array as="points">
              <mxPoint x="313" y="991" />
            </Array>
          </mxGeometry>
        </mxCell>
      </root>
    </mxGraphModel>
  </diagram>
</mxfile>
